HIERARCHY
ROOT Hips
{
	OFFSET 0.000000 0.000000 0.000000
	CHANNELS 6 Xposition Yposition Zposition Zrotation Yrotation Xrotation 
	JOINT LHipJoint
	{
		OFFSET 0.000000 0.000000 0.000000
		CHANNELS 3 Zrotation Yrotation Xrotation
		JOINT LeftUpLeg
		{
			OFFSET 1.363060 -1.794630 0.839290
			CHANNELS 3 Zrotation Yrotation Xrotation
			JOINT LeftLeg
			{
				OFFSET 2.448110 -6.726130 0.000000
				CHANNELS 3 Zrotation Yrotation Xrotation
				JOINT LeftFoot
				{
					OFFSET 2.562200 -7.039590 0.000000
					CHANNELS 3 Zrotation Yrotation Xrotation
					JOINT LeftToeBase
					{
						OFFSET 0.157640 -0.433110 2.322550
						CHANNELS 3 Zrotation Yrotation Xrotation
						End Site
						{
							OFFSET 0.000000 0.000000 0.000000
						}
					}
				}
			}
		}
	}
	JOINT RHipJoint
	{
		OFFSET 0.000000 0.000000 0.000000
		CHANNELS 3 Zrotation Yrotation Xrotation
		JOINT RightUpLeg
		{
			OFFSET -1.305520 -1.794630 0.839290
			CHANNELS 3 Zrotation Yrotation Xrotation
			JOINT RightLeg
			{
				OFFSET -2.542530 -6.985550 0.000000
				CHANNELS 3 Zrotation Yrotation Xrotation
				JOINT RightFoot
				{
					OFFSET -2.568260 -7.056230 0.000000
					CHANNELS 3 Zrotation Yrotation Xrotation
					JOINT RightToeBase
					{
						OFFSET -0.164730 -0.452590 2.363150
						CHANNELS 3 Zrotation Yrotation Xrotation
						End Site
						{
							OFFSET 0.000000 0.000000 0.000000
						}
					}
				}
			}
		}
	}
	JOINT LowerBack
	{
		OFFSET 0.000000 0.000000 0.000000
		CHANNELS 3 Zrotation Yrotation Xrotation
		JOINT Spine
		{
			OFFSET 0.028270 2.035590 -0.193380
			CHANNELS 3 Zrotation Yrotation Xrotation
			JOINT Spine1
			{
				OFFSET 0.056720 2.048850 -0.042750
				CHANNELS 3 Zrotation Yrotation Xrotation
				JOINT Neck
				{
					OFFSET 0.000000 0.000000 0.000000
					CHANNELS 3 Zrotation Yrotation Xrotation
					JOINT Neck1
					{
						OFFSET -0.054170 1.746240 0.172020
						CHANNELS 3 Zrotation Yrotation Xrotation
						JOINT Head
						{
							OFFSET 0.104070 1.761360 -0.123970
							CHANNELS 3 Zrotation Yrotation Xrotation
							End Site
							{
								OFFSET 0.000000 0.000000 0.000000
							}
						}
					}
				}
				JOINT LeftShoulder
				{
					OFFSET 0.000000 0.000000 0.000000
					CHANNELS 3 Zrotation Yrotation Xrotation
					JOINT LeftArm
					{
						OFFSET 3.362410 1.200890 -0.311210
						CHANNELS 3 Zrotation Yrotation Xrotation
						JOINT LeftForeArm
						{
							OFFSET 4.983000 -0.000000 -0.000000
							CHANNELS 3 Zrotation Yrotation Xrotation
							JOINT LeftHand
							{
								OFFSET 3.483560 -0.000000 -0.000000
								CHANNELS 3 Zrotation Yrotation Xrotation
								JOINT LeftFingerBase
								{
									OFFSET 0.000000 0.000000 0.000000
									CHANNELS 3 Zrotation Yrotation Xrotation
									JOINT LeftHandIndex1
									{
										OFFSET 0.715260 -0.000000 -0.000000
										CHANNELS 3 Zrotation Yrotation Xrotation
										End Site
										{
											OFFSET 0.000000 0.000000 0.000000
										}
									}
								}
								JOINT LThumb
								{
									OFFSET 0.000000 0.000000 0.000000
									CHANNELS 3 Zrotation Yrotation Xrotation
									End Site
									{
										OFFSET 0.000000 0.000000 0.000000
									}
								}
							}
						}
					}
				}
				JOINT RightShoulder
				{
					OFFSET 0.000000 0.000000 0.000000
					CHANNELS 3 Zrotation Yrotation Xrotation
					JOINT RightArm
					{
						OFFSET -3.136600 1.374050 -0.404650
						CHANNELS 3 Zrotation Yrotation Xrotation
						JOINT RightForeArm
						{
							OFFSET -5.241900 -0.000000 -0.000000
							CHANNELS 3 Zrotation Yrotation Xrotation
							JOINT RightHand
							{
								OFFSET -3.444170 -0.000000 -0.000000
								CHANNELS 3 Zrotation Yrotation Xrotation
								JOINT RightFingerBase
								{
									OFFSET 0.000000 0.000000 0.000000
									CHANNELS 3 Zrotation Yrotation Xrotation
									JOINT RightHandIndex1
									{
										OFFSET -0.622530 -0.000000 -0.000000
										CHANNELS 3 Zrotation Yrotation Xrotation
										End Site
										{
											OFFSET 0.000000 0.000000 0.000000
										}
									}
								}
								JOINT RThumb
								{
									OFFSET 0.000000 0.000000 0.000000
									CHANNELS 3 Zrotation Yrotation Xrotation
									End Site
									{
										OFFSET 0.000000 0.000000 0.000000
									}
								}
							}
						}
					}
				}
			}
		}
	}
}
MOTION
Frames: 7
Frame Time: 0.008333
0.685689 15.490552 -1.151584 129.248213 -85.346403 62.115099 -33.307451 -59.799825 -155.157183 160.448302 -61.883689 -122.071699 -10.053376 16.444655 177.977375 -67.648116 -56.090921 -18.752278 0.030600 1.129300 3.104600 -158.446115 -3.179590 117.304545 -48.167543 -71.851580 -63.225282 -131.405938 -38.575830 -22.862917 -21.172868 -33.625353 40.268347 -0.227600 -3.070600 8.475400 86.350690 -9.552003 84.794608 -128.547200 37.578332 38.047475 -84.510571 -39.352628 161.273113 26.468333 4.979098 125.123122 -97.825537 -82.150794 174.797211 -2.356000 1.220600 14.230200 65.732121 36.672465 -179.972889 43.229026 -72.420187 129.667792 -67.949079 37.098514 -158.834172 -156.341084 34.272249 119.014232 -175.165843 52.211132 177.627897 -7.125000 0.000000 0.000000 -12.774700 14.190800 9.496700 50.197238 -52.623898 -37.336764 28.793758 29.758616 90.201438 -16.700830 14.445848 -154.145030 -26.364502 77.613053 -24.740718 -67.822811 66.572870 -15.030200 7.125000 0.000000 0.000000 1.286000 2.752800 1.346600 
0.845274 15.539363 -1.106865 76.170085 57.583602 -163.333019 -37.062407 -6.867346 -134.565630 -25.145700 -54.424402 -37.252902 161.436416 8.867411 168.179134 -108.868107 -14.229645 20.975930 0.024900 1.018600 2.800100 -70.562960 -56.518296 72.286819 44.618716 53.493081 -43.522521 -69.216583 66.820623 80.334359 -91.725002 -84.792957 -118.719630 -0.236300 -3.128500 8.636700 -96.071761 -9.752461 74.648740 -119.349943 -59.743889 120.642172 -70.026997 -0.775558 70.163716 65.233263 63.643597 -158.018913 44.807629 50.924788 27.074205 -2.581100 1.425700 14.074000 -120.174540 -49.184776 90.999646 -40.557664 -42.842865 116.905244 -94.915786 86.077126 -4.796949 -157.762696 -40.822668 165.952906 -164.721411 -8.108081 177.607600 -7.125000 0.000000 0.000000 -12.792100 13.988100 9.566800 71.766257 81.427642 174.371397 -116.473186 -0.178781 -92.444637 117.782491 34.554547 175.888887 3.677356 -16.811522 -3.967205 -26.638190 31.350559 -15.085200 7.125000 0.000000 0.000000 1.321700 2.903700 1.387400 
1.006905 15.590512 -1.065653 -123.657976 -34.641955 -144.222349 176.595475 28.316653 128.781860 -89.707666 40.133080 120.347445 -47.974733 -17.105951 -144.836469 -172.785014 2.624766 -25.400622 0.006800 0.533100 1.464900 94.032840 87.944832 -15.434484 -34.239711 14.593972 167.226770 154.754010 -28.887973 -169.705930 98.045369 -13.140737 -47.710536 -0.158900 -2.568000 7.078300 71.861008 19.013223 -5.018396 -149.610915 -80.280320 -87.316950 78.228586 -81.172834 108.531172 14.795365 4.307830 46.597611 -134.436726 -38.197587 -84.757170 -2.689600 1.392500 14.256700 -134.194701 -17.091210 -87.657427 -152.142759 -83.963844 -56.793234 8.650378 -75.415435 -2.214771 -175.342600 72.151570 148.036568 -162.693847 89.214310 177.653301 -7.125000 0.000000 0.000000 -12.909500 13.965700 9.665700 -2.140881 47.456741 -76.394170 13.134349 -21.576948 -11.914899 -40.008873 46.977461 59.200708 -48.434690 37.159219 26.892135 -65.745303 79.078673 -15.235831 7.125000 0.000000 0.000000 1.230100 3.043900 1.294000 
1.168536 15.646630 -1.035256 133.415457 35.516475 100.895453 79.694614 53.793339 -163.080793 14.079749 69.654000 142.308217 -25.944065 65.025674 176.508210 -7.707540 -9.051431 -124.311578 0.006800 0.534000 1.467400 16.235816 -26.238343 -116.245767 169.513037 28.330702 -65.217459 -33.737599 36.637310 -8.793335 30.428132 -67.555025 -54.825965 -0.086600 -1.898300 5.224800 4.096148 53.093855 -25.878058 -1.928725 30.463168 177.901153 81.930891 -12.048418 159.734652 165.091732 -84.727207 160.317658 -15.821519 42.835787 -47.367224 -2.829500 1.343200 14.441600 145.522591 -57.073356 89.796580 69.291229 -88.851514 -0.525472 171.647680 15.334840 -4.323876 70.793668 48.958378 -88.332338 7.007608 49.617835 -2.099999 -7.125000 0.000000 0.000000 -13.338400 14.534300 9.839200 136.996080 -80.728715 73.936501 -10.888599 -76.167025 134.177727 62.242355 75.480927 25.817101 -34.863157 1.676285 43.915883 -38.451843 79.978477 -15.285701 7.125000 0.000000 0.000000 1.304400 3.240700 1.376400 
1.337766 15.700117 -1.005736 107.255356 -34.610916 -59.794595 -5.702492 44.133271 72.790002 -45.607718 61.213041 -41.568382 41.449778 -84.159303 177.538673 54.397631 47.026995 68.724017 0.018500 0.878800 2.415400 -33.704283 -31.403686 -41.505961 -83.139564 -54.142749 115.084119 -45.301079 65.935746 -79.676994 -160.081184 -81.457308 -76.913957 -0.127100 -2.298200 6.330500 34.190567 75.928045 -126.632155 152.611923 -22.061110 -56.638237 -10.655810 -12.385430 28.467603 -146.576511 -58.621925 68.842091 25.862102 -17.821704 49.675958 -2.871800 1.259900 14.473300 144.069491 14.365946 -56.089023 126.444646 -86.051761 135.139536 -124.072053 63.471667 -172.746371 -172.528676 61.849350 -179.274172 89.400947 34.988551 -1.780300 -7.125000 0.000000 0.000000 -13.899400 15.443000 9.999300 126.472939 -73.076936 -143.635894 79.978031 74.335331 -77.058307 36.017302 48.754881 0.625391 -3.034317 -66.599415 -15.563517 -41.081000 -30.169757 -15.267600 7.125000 0.000000 0.000000 1.422600 3.379800 1.504500 
1.503781 15.756527 -0.978261 -132.857274 60.198493 66.351687 -29.487520 -44.939422 178.343744 -18.331567 -66.811781 -143.688084 25.586656 88.969541 -145.618507 -164.622384 -60.748006 28.855810 0.057800 1.550700 4.265600 93.038194 -68.714987 133.023111 -7.063888 -78.748086 -16.807671 151.617831 47.811455 29.480422 93.600791 -85.781412 -165.743928 -0.207500 -2.933200 8.092900 147.235613 -72.123853 126.615630 -90.253739 45.311798 -157.752979 160.979731 -30.241887 -152.433657 102.841509 25.139448 -77.914073 58.572322 -34.061235 -35.898510 -2.903800 1.184600 14.557000 124.189644 85.498870 -59.832801 -68.502358 55.069120 -88.354055 -92.406106 -17.362383 -157.112227 -91.888089 77.471830 108.668857 -70.348639 82.111518 178.458999 -7.125000 0.000000 0.000000 -14.432500 15.867100 10.271800 145.579442 -85.050799 -10.142011 129.971089 -28.050649 54.807060 20.686263 73.005474 -161.983593 37.292873 -41.332159 29.061485 -5.684715 -1.815301 -15.352800 7.125000 0.000000 0.000000 1.473600 3.607900 1.563900 
1.676519 15.805922 -0.959263 11.686250 55.846462 -10.605761 -60.689080 -11.146203 43.865997 -86.654212 7.018415 -140.545175 -44.305718 -83.446078 -95.641197 -7.472681 6.173523 149.594642 0.121700 2.248700 6.193500 -92.096674 2.102049 16.815281 -23.917905 -67.571339 -122.511132 -142.662679 3.922385 146.969244 173.141709 -0.849539 -105.267322 -0.159200 -2.570900 7.086400 100.202784 87.262475 106.926768 94.843552 6.400449 5.513014 -49.844415 -69.573564 83.183748 139.124256 87.175893 -11.506086 79.436374 -55.360161 87.445958 -3.266900 1.451900 14.324500 -74.222192 64.642990 -85.270248 117.726119 -34.775995 -77.968258 53.979810 -55.560542 -154.557433 -116.907802 71.010153 102.042534 -117.022401 59.529949 178.602100 -7.125000 0.000000 0.000000 -14.810700 15.916500 10.543800 108.814255 3.673903 -126.911488 149.150570 -11.837531 -140.901967 -159.184111 -66.097739 4.420202 15.841056 -1.786995 20.002759 -13.711087 44.840093 -15.473100 7.125000 0.000000 0.000000 1.535200 3.914900 1.637000 
